<svg xmlns="http://www.w3.org/2000/svg" viewBox="0 0 48 48" fill="none">
  <defs>
    <!-- Background Gradient -->
    <linearGradient id="bgGrad" x1="0%" y1="0%" x2="100%" y2="100%">
      <stop offset="0%" stop-color="#F7971E" />
      <stop offset="100%" stop-color="#FFD200" />
    </linearGradient>
    
    <!-- Glossy Top Highlight Gradient -->
    <linearGradient id="glossGrad" x1="0%" y1="0%" x2="0%" y2="100%">
      <stop offset="0%" stop-color="#ffffff" stop-opacity="0.6" />
      <stop offset="100%" stop-color="#ffffff" stop-opacity="0.0" />
    </linearGradient>

    <!-- Inner Bottom Shadow Gradient -->
    <linearGradient id="shadowGrad" x1="0%" y1="100%" x2="0%" y2="0%">
      <stop offset="0%" stop-color="#000000" stop-opacity="0.3" />
      <stop offset="100%" stop-color="#000000" stop-opacity="0.0" />
    </linearGradient>

    <!-- Drop Shadow for the Icon -->
    <filter id="iconShadow" x="-20%" y="-20%" width="140%" height="140%">
      <feDropShadow dx="0" dy="3" stdDeviation="2" flood-color="#000000" flood-opacity="0.4"/>
    </filter>
  </defs>

  <!-- Base Squircle -->
  <rect width="100%" height="100%" rx="12" fill="url(#bgGrad)" />
  
  <!-- Inner Bottom Shadow -->
  <rect width="100%" height="100%" rx="12" fill="url(#shadowGrad)" />

  <!-- Glossy Top Highlight -->
  <path d="M 0,12 C 0,5 5,0 12,0 L 36,0 C 43,0 48,5 48,12 C 48,24 36,28 24,28 C 12,28 0,24 0,12 Z" fill="url(#glossGrad)" />

  <!-- Icon Wrapper with Drop Shadow -->
  <g filter="url(#iconShadow)">
    <ellipse cx="24" cy="28" rx="14" ry="9" fill="#ffffff"/><path d="M10 28c0-8 6-16 14-16s14 8 14 16" fill="#ffffff"/><path d="M18 22c2-4 5-6 6-6" stroke="#F7971E" stroke-width="1.5" fill="none" stroke-linecap="round"/><path d="M24 20c1-3 3-5 4-5" stroke="#F7971E" stroke-width="1.5" fill="none" stroke-linecap="round"/><ellipse cx="24" cy="34" rx="10" ry="2" fill="#ffffff" opacity="0.7"/>
  </g>
</svg>