<svg xmlns="http://www.w3.org/2000/svg" viewBox="0 0 48 48" fill="none">
  <rect width="48" height="48" rx="12" fill="#FF6B35"/>
  <rect width="48" height="48" rx="12" fill="url(#g1)" opacity="0.3"/>
  <defs><linearGradient id="g1" x1="0" y1="0" x2="48" y2="48"><stop stop-color="#fff"/><stop offset="1" stop-color="#000" stop-opacity="0"/></linearGradient></defs>
  <!-- drumstick -->
  <path d="M28 12c-4.4 0-8 3.6-8 8 0 1.5.4 2.9 1.1 4.1L15 30.2c-.8.8-1.2 1.8-1 2.9.2 1.1.8 2 1.8 2.5l.4.2c1 .5 2.1.5 3.1 0 .5-.3 1-.7 1.3-1.2l6.1-6.1c1.2.7 2.6 1.1 4.1 1.1 4.4 0 8-3.6 8-8s-3.2-8.6-7.6-8.6H28z" fill="#fff"/>
  <circle cx="30" cy="18" r="2" fill="#FF6B35"/>
</svg>
