<svg xmlns="http://www.w3.org/2000/svg" viewBox="0 0 48 48" fill="none">
  <defs>
    <!-- Background Gradient -->
    <linearGradient id="bgGrad" x1="0%" y1="0%" x2="100%" y2="100%">
      <stop offset="0%" stop-color="#D4A373" />
      <stop offset="100%" stop-color="#8B4513" />
    </linearGradient>
    
    <!-- Glossy Top Highlight Gradient -->
    <linearGradient id="glossGrad" x1="0%" y1="0%" x2="0%" y2="100%">
      <stop offset="0%" stop-color="#ffffff" stop-opacity="0.6" />
      <stop offset="100%" stop-color="#ffffff" stop-opacity="0.0" />
    </linearGradient>

    <!-- Inner Bottom Shadow Gradient -->
    <linearGradient id="shadowGrad" x1="0%" y1="100%" x2="0%" y2="0%">
      <stop offset="0%" stop-color="#000000" stop-opacity="0.3" />
      <stop offset="100%" stop-color="#000000" stop-opacity="0.0" />
    </linearGradient>

    <!-- Drop Shadow for the Icon -->
    <filter id="iconShadow" x="-20%" y="-20%" width="140%" height="140%">
      <feDropShadow dx="0" dy="3" stdDeviation="2" flood-color="#000000" flood-opacity="0.4"/>
    </filter>
  </defs>

  <!-- Base Squircle -->
  <rect width="100%" height="100%" rx="12" fill="url(#bgGrad)" />
  
  <!-- Inner Bottom Shadow -->
  <rect width="100%" height="100%" rx="12" fill="url(#shadowGrad)" />

  <!-- Glossy Top Highlight -->
  <path d="M 0,12 C 0,5 5,0 12,0 L 36,0 C 43,0 48,5 48,12 C 48,24 36,28 24,28 C 12,28 0,24 0,12 Z" fill="url(#glossGrad)" />

  <!-- Icon Wrapper with Drop Shadow -->
  <g filter="url(#iconShadow)">
    <path d="M12 20h20v2c0 6.6-4.5 12-10 12s-10-5.4-10-12v-2z" fill="#ffffff"/><path d="M32 22h2c2.2 0 4 1.8 4 4s-1.8 4-4 4h-2" stroke="#ffffff" stroke-width="2.5" stroke-linecap="round" fill="none"/><rect x="14" y="36" width="16" height="2" rx="1" fill="#ffffff" opacity="0.8"/><path d="M19 16c0-2 2-2 2-4" stroke="#ffffff" stroke-width="2" stroke-linecap="round"/><path d="M24 14c0-2 2-2 2-4" stroke="#ffffff" stroke-width="2" stroke-linecap="round"/><path d="M29 16c0-2 2-2 2-4" stroke="#ffffff" stroke-width="2" stroke-linecap="round"/>
  </g>
</svg>