<svg xmlns="http://www.w3.org/2000/svg" viewBox="0 0 48 48" fill="none">
  <rect width="48" height="48" rx="12" fill="#6F4E37"/>
  <rect width="48" height="48" rx="12" fill="url(#g1)" opacity="0.25"/>
  <defs><linearGradient id="g1" x1="0" y1="0" x2="48" y2="48"><stop stop-color="#fff"/><stop offset="1" stop-color="#000" stop-opacity="0"/></linearGradient></defs>
  <!-- coffee cup -->
  <path d="M12 20h20v2c0 6.6-4.5 12-10 12s-10-5.4-10-12v-2z" fill="#fff"/>
  <path d="M32 22h2c2.2 0 4 1.8 4 4s-1.8 4-4 4h-2" stroke="#fff" stroke-width="2.5" stroke-linecap="round" fill="none"/>
  <rect x="14" y="36" width="16" height="2" rx="1" fill="#fff" opacity="0.6"/>
  <!-- steam -->
  <path d="M19 16c0-2 2-2 2-4" stroke="#fff" stroke-width="1.5" stroke-linecap="round" opacity="0.6"/>
  <path d="M24 14c0-2 2-2 2-4" stroke="#fff" stroke-width="1.5" stroke-linecap="round" opacity="0.6"/>
  <path d="M29 16c0-2 2-2 2-4" stroke="#fff" stroke-width="1.5" stroke-linecap="round" opacity="0.6"/>
</svg>
