<svg xmlns="http://www.w3.org/2000/svg" viewBox="0 0 48 48" fill="none">
  <rect width="48" height="48" rx="12" fill="#00B894"/>
  <rect width="48" height="48" rx="12" fill="url(#g1)" opacity="0.25"/>
  <defs><linearGradient id="g1" x1="0" y1="0" x2="48" y2="48"><stop stop-color="#fff"/><stop offset="1" stop-color="#000" stop-opacity="0"/></linearGradient></defs>
  <!-- three small dishes -->
  <ellipse cx="16" cy="22" rx="7" ry="4" fill="#fff"/>
  <ellipse cx="32" cy="22" rx="7" ry="4" fill="#fff"/>
  <ellipse cx="24" cy="34" rx="7" ry="4" fill="#fff"/>
  <!-- food in dishes -->
  <ellipse cx="16" cy="20" rx="5" ry="2.5" fill="#fff" opacity="0.8"/>
  <ellipse cx="32" cy="20" rx="5" ry="2.5" fill="#fff" opacity="0.8"/>
  <ellipse cx="24" cy="32" rx="5" ry="2.5" fill="#fff" opacity="0.8"/>
  <!-- dish bottoms -->
  <path d="M9 22c0 3 3 6 7 6s7-3 7-6" stroke="#fff" stroke-width="1.5" fill="none" opacity="0.5"/>
  <path d="M25 22c0 3 3 6 7 6s7-3 7-6" stroke="#fff" stroke-width="1.5" fill="none" opacity="0.5"/>
  <path d="M17 34c0 3 3 6 7 6s7-3 7-6" stroke="#fff" stroke-width="1.5" fill="none" opacity="0.5"/>
</svg>
