<svg xmlns="http://www.w3.org/2000/svg" viewBox="0 0 48 48" fill="none">
  <rect width="48" height="48" rx="12" fill="#0652DD"/>
  <rect width="48" height="48" rx="12" fill="url(#g1)" opacity="0.2"/>
  <defs><linearGradient id="g1" x1="0" y1="0" x2="48" y2="48"><stop stop-color="#fff"/><stop offset="1" stop-color="#000" stop-opacity="0"/></linearGradient></defs>
  <!-- tall building -->
  <rect x="14" y="8" width="20" height="32" rx="2" fill="#fff"/>
  <!-- windows grid -->
  <rect x="17" y="12" width="4" height="3" rx="0.5" fill="#0652DD" opacity="0.3"/>
  <rect x="23" y="12" width="4" height="3" rx="0.5" fill="#0652DD" opacity="0.3"/>
  <rect x="29" y="12" width="4" height="3" rx="0.5" fill="#0652DD" opacity="0.3"/>
  <rect x="17" y="18" width="4" height="3" rx="0.5" fill="#0652DD" opacity="0.3"/>
  <rect x="23" y="18" width="4" height="3" rx="0.5" fill="#0652DD" opacity="0.3"/>
  <rect x="29" y="18" width="4" height="3" rx="0.5" fill="#0652DD" opacity="0.3"/>
  <rect x="17" y="24" width="4" height="3" rx="0.5" fill="#0652DD" opacity="0.3"/>
  <rect x="23" y="24" width="4" height="3" rx="0.5" fill="#0652DD" opacity="0.3"/>
  <rect x="29" y="24" width="4" height="3" rx="0.5" fill="#0652DD" opacity="0.3"/>
  <rect x="17" y="30" width="4" height="3" rx="0.5" fill="#0652DD" opacity="0.3"/>
  <rect x="23" y="30" width="4" height="3" rx="0.5" fill="#0652DD" opacity="0.3"/>
  <rect x="29" y="30" width="4" height="3" rx="0.5" fill="#0652DD" opacity="0.3"/>
  <!-- entrance -->
  <rect x="21" y="36" width="6" height="4" rx="1" fill="#0652DD" opacity="0.4"/>
  <!-- roof detail -->
  <rect x="22" y="5" width="4" height="3" rx="1" fill="#fff" opacity="0.6"/>
</svg>
