<svg xmlns="http://www.w3.org/2000/svg" viewBox="0 0 48 48" fill="none">
  <rect width="48" height="48" rx="12" fill="#3182F6"/>
  <rect width="48" height="48" rx="12" fill="url(#g1)" opacity="0.2"/>
  <defs><linearGradient id="g1" x1="0" y1="0" x2="48" y2="48"><stop stop-color="#fff"/><stop offset="1" stop-color="#000" stop-opacity="0"/></linearGradient></defs>
  <!-- medium building -->
  <rect x="10" y="14" width="28" height="26" rx="2" fill="#fff"/>
  <!-- awning -->
  <path d="M8 14h32v4H8v-4z" fill="#fff" opacity="0.9"/>
  <path d="M8 18c2 2 4 2 6 0s4-2 6 0 4 2 6 0 4-2 6 0 4 2 6 0" stroke="#3182F6" stroke-width="1.5" fill="none" opacity="0.3"/>
  <!-- windows row 1 -->
  <rect x="13" y="22" width="5" height="5" rx="1" fill="#3182F6" opacity="0.3"/>
  <rect x="21.5" y="22" width="5" height="5" rx="1" fill="#3182F6" opacity="0.3"/>
  <rect x="30" y="22" width="5" height="5" rx="1" fill="#3182F6" opacity="0.3"/>
  <!-- door -->
  <rect x="19" y="32" width="10" height="8" rx="1.5" fill="#3182F6" opacity="0.4"/>
</svg>
