<svg xmlns="http://www.w3.org/2000/svg" viewBox="0 0 32 32" fill="none">
  <defs>
    <!-- Background Gradient -->
    <linearGradient id="bgGrad" x1="0%" y1="0%" x2="100%" y2="100%">
      <stop offset="0%" stop-color="#F7971E" />
      <stop offset="100%" stop-color="#FFD200" />
    </linearGradient>
    
    <!-- Glossy Top Highlight Gradient -->
    <linearGradient id="glossGrad" x1="0%" y1="0%" x2="0%" y2="100%">
      <stop offset="0%" stop-color="#ffffff" stop-opacity="0.6" />
      <stop offset="100%" stop-color="#ffffff" stop-opacity="0.0" />
    </linearGradient>

    <!-- Inner Bottom Shadow Gradient -->
    <linearGradient id="shadowGrad" x1="0%" y1="100%" x2="0%" y2="0%">
      <stop offset="0%" stop-color="#000000" stop-opacity="0.3" />
      <stop offset="100%" stop-color="#000000" stop-opacity="0.0" />
    </linearGradient>

    <!-- Drop Shadow for the Icon -->
    <filter id="iconShadow" x="-20%" y="-20%" width="140%" height="140%">
      <feDropShadow dx="0" dy="3" stdDeviation="2" flood-color="#000000" flood-opacity="0.4"/>
    </filter>
  </defs>

  <!-- Base Squircle -->
  <rect width="100%" height="100%" rx="8" fill="url(#bgGrad)" />
  
  <!-- Inner Bottom Shadow -->
  <rect width="100%" height="100%" rx="8" fill="url(#shadowGrad)" />

  <!-- Glossy Top Highlight -->
  <path d="M 0,8 C 0,5 5,0 8,0 L 24,0 C 27,0 32,5 32,8 C 32,16 24,20 16,20 C 8,20 0,16 0,8 Z" fill="url(#glossGrad)" />

  <!-- Icon Wrapper with Drop Shadow -->
  <g filter="url(#iconShadow)">
    <path d="M6 18c2-6 5-10 10-10s8 4 10 10c-3 2-7 3-10 3s-7-1-10-3z" fill="#ffffff"/><path d="M8 17c1-4 4-7 8-7s7 3 8 7" stroke="#F7971E" stroke-width="1.5" fill="none"/><path d="M6 18c3 3 6 5 10 5s7-2 10-5" stroke="#ffffff" stroke-width="1.5" fill="none"/>
  </g>
</svg>