<svg xmlns="http://www.w3.org/2000/svg" viewBox="0 0 32 32" fill="none">
  <defs>
    <!-- Background Gradient -->
    <linearGradient id="bgGrad" x1="0%" y1="0%" x2="100%" y2="100%">
      <stop offset="0%" stop-color="#56AB2F" />
      <stop offset="100%" stop-color="#A8E063" />
    </linearGradient>
    
    <!-- Glossy Top Highlight Gradient -->
    <linearGradient id="glossGrad" x1="0%" y1="0%" x2="0%" y2="100%">
      <stop offset="0%" stop-color="#ffffff" stop-opacity="0.6" />
      <stop offset="100%" stop-color="#ffffff" stop-opacity="0.0" />
    </linearGradient>

    <!-- Inner Bottom Shadow Gradient -->
    <linearGradient id="shadowGrad" x1="0%" y1="100%" x2="0%" y2="0%">
      <stop offset="0%" stop-color="#000000" stop-opacity="0.3" />
      <stop offset="100%" stop-color="#000000" stop-opacity="0.0" />
    </linearGradient>

    <!-- Drop Shadow for the Icon -->
    <filter id="iconShadow" x="-20%" y="-20%" width="140%" height="140%">
      <feDropShadow dx="0" dy="3" stdDeviation="2" flood-color="#000000" flood-opacity="0.4"/>
    </filter>
  </defs>

  <!-- Base Squircle -->
  <rect width="100%" height="100%" rx="8" fill="url(#bgGrad)" />
  
  <!-- Inner Bottom Shadow -->
  <rect width="100%" height="100%" rx="8" fill="url(#shadowGrad)" />

  <!-- Glossy Top Highlight -->
  <path d="M 0,8 C 0,5 5,0 8,0 L 24,0 C 27,0 32,5 32,8 C 32,16 24,20 16,20 C 8,20 0,16 0,8 Z" fill="url(#glossGrad)" />

  <!-- Icon Wrapper with Drop Shadow -->
  <g filter="url(#iconShadow)">
    <rect x="7" y="10" width="18" height="14" rx="2" fill="#ffffff"/><line x1="16" y1="10" x2="16" y2="24" stroke="#56AB2F" stroke-width="1.5"/><line x1="7" y1="17" x2="25" y2="17" stroke="#56AB2F" stroke-width="1.5"/><rect x="7" y="8" width="18" height="3" rx="1.5" fill="#ffffff"/>
  </g>
</svg>