<svg xmlns="http://www.w3.org/2000/svg" viewBox="0 0 32 32" fill="none">
  <defs>
    <!-- Background Gradient -->
    <linearGradient id="bgGrad" x1="0%" y1="0%" x2="100%" y2="100%">
      <stop offset="0%" stop-color="#8E2DE2" />
      <stop offset="100%" stop-color="#4A00E0" />
    </linearGradient>
    
    <!-- Glossy Top Highlight Gradient -->
    <linearGradient id="glossGrad" x1="0%" y1="0%" x2="0%" y2="100%">
      <stop offset="0%" stop-color="#ffffff" stop-opacity="0.6" />
      <stop offset="100%" stop-color="#ffffff" stop-opacity="0.0" />
    </linearGradient>

    <!-- Inner Bottom Shadow Gradient -->
    <linearGradient id="shadowGrad" x1="0%" y1="100%" x2="0%" y2="0%">
      <stop offset="0%" stop-color="#000000" stop-opacity="0.3" />
      <stop offset="100%" stop-color="#000000" stop-opacity="0.0" />
    </linearGradient>

    <!-- Drop Shadow for the Icon -->
    <filter id="iconShadow" x="-20%" y="-20%" width="140%" height="140%">
      <feDropShadow dx="0" dy="3" stdDeviation="2" flood-color="#000000" flood-opacity="0.4"/>
    </filter>
  </defs>

  <!-- Base Squircle -->
  <rect width="100%" height="100%" rx="8" fill="url(#bgGrad)" />
  
  <!-- Inner Bottom Shadow -->
  <rect width="100%" height="100%" rx="8" fill="url(#shadowGrad)" />

  <!-- Glossy Top Highlight -->
  <path d="M 0,8 C 0,5 5,0 8,0 L 24,0 C 27,0 32,5 32,8 C 32,16 24,20 16,20 C 8,20 0,16 0,8 Z" fill="url(#glossGrad)" />

  <!-- Icon Wrapper with Drop Shadow -->
  <g filter="url(#iconShadow)">
    <rect x="13" y="5" width="6" height="4" rx="1.5" fill="#ffffff"/><rect x="14.5" y="3" width="3" height="3" rx="0.8" fill="#ffffff"/><path d="M12 9h8l-.5 17c0 .8-.7 1.5-1.5 1.5h-4c-.8 0-1.5-.7-1.5-1.5L12 9z" fill="#ffffff"/><rect x="14" y="12" width="2" height="8" rx="1" fill="#8E2DE2"/>
  </g>
</svg>