<svg xmlns="http://www.w3.org/2000/svg" viewBox="0 0 48 48" fill="none">
  <rect width="48" height="48" rx="12" fill="#FFD93D"/>
  <rect width="48" height="48" rx="12" fill="url(#g1)" opacity="0.2"/>
  <defs><linearGradient id="g1" x1="0" y1="0" x2="48" y2="48"><stop stop-color="#fff"/><stop offset="1" stop-color="#000" stop-opacity="0"/></linearGradient></defs>
  <!-- hands clapping -->
  <!-- left hand -->
  <path d="M14 28l4-12c.5-1.5 2-2 3-1.5s1.5 2 1 3.5L20 24" stroke="#fff" stroke-width="2.5" fill="none" stroke-linecap="round"/>
  <path d="M17 30l2-6" stroke="#fff" stroke-width="2.5" fill="none" stroke-linecap="round"/>
  <path d="M20 31l1-5" stroke="#fff" stroke-width="2.5" fill="none" stroke-linecap="round"/>
  <path d="M13 30c-1 3 0 6 3 8l4 2" stroke="#fff" stroke-width="2.5" fill="none" stroke-linecap="round"/>
  <!-- right hand -->
  <path d="M34 28l-4-12c-.5-1.5-2-2-3-1.5s-1.5 2-1 3.5L28 24" stroke="#fff" stroke-width="2.5" fill="none" stroke-linecap="round"/>
  <path d="M31 30l-2-6" stroke="#fff" stroke-width="2.5" fill="none" stroke-linecap="round"/>
  <path d="M28 31l-1-5" stroke="#fff" stroke-width="2.5" fill="none" stroke-linecap="round"/>
  <path d="M35 30c1 3 0 6-3 8l-4 2" stroke="#fff" stroke-width="2.5" fill="none" stroke-linecap="round"/>
  <!-- sparkles -->
  <circle cx="10" cy="14" r="2" fill="#fff" opacity="0.6"/>
  <circle cx="38" cy="14" r="2" fill="#fff" opacity="0.6"/>
  <circle cx="24" cy="8" r="1.5" fill="#fff" opacity="0.5"/>
  <line x1="8" y1="20" x2="6" y2="18" stroke="#fff" stroke-width="1.5" stroke-linecap="round" opacity="0.4"/>
  <line x1="40" y1="20" x2="42" y2="18" stroke="#fff" stroke-width="1.5" stroke-linecap="round" opacity="0.4"/>
</svg>
