<svg xmlns="http://www.w3.org/2000/svg" viewBox="0 0 48 48" fill="none">
  <rect width="48" height="48" rx="12" fill="#FF6B6B"/>
  <rect width="48" height="48" rx="12" fill="url(#g1)" opacity="0.2"/>
  <defs><linearGradient id="g1" x1="0" y1="0" x2="48" y2="48"><stop stop-color="#fff"/><stop offset="1" stop-color="#000" stop-opacity="0"/></linearGradient></defs>
  <!-- party popper -->
  <path d="M10 38L22 18l8 8L12 40" fill="#fff" opacity="0.9"/>
  <path d="M10 38l2-2" stroke="#fff" stroke-width="3" stroke-linecap="round"/>
  <!-- confetti pieces -->
  <rect x="28" y="8" width="4" height="4" rx="1" fill="#fff" transform="rotate(20 30 10)" opacity="0.8"/>
  <rect x="34" y="14" width="3" height="3" rx="0.5" fill="#fff" transform="rotate(-15 35 15)" opacity="0.6"/>
  <rect x="36" y="24" width="3" height="3" rx="0.5" fill="#fff" transform="rotate(45 37 25)" opacity="0.7"/>
  <circle cx="30" cy="16" r="2" fill="#fff" opacity="0.7"/>
  <circle cx="38" cy="10" r="1.5" fill="#fff" opacity="0.5"/>
  <circle cx="22" cy="10" r="1.5" fill="#fff" opacity="0.5"/>
  <!-- streamers -->
  <path d="M26 14c4-2 8-1 10 2" stroke="#fff" stroke-width="2" fill="none" stroke-linecap="round" opacity="0.6"/>
  <path d="M30 20c3 0 6 1 8 4" stroke="#fff" stroke-width="2" fill="none" stroke-linecap="round" opacity="0.5"/>
  <!-- stars -->
  <path d="M16 12l1 2 2 0.5-1.5 1.5 0.5 2-2-1-2 1 0.5-2L13 14.5l2-0.5z" fill="#fff" opacity="0.6"/>
  <path d="M40 30l0.7 1.5 1.5 0.3-1 1 0.3 1.5-1.5-0.7-1.5 0.7 0.3-1.5-1-1 1.5-0.3z" fill="#fff" opacity="0.5"/>
</svg>
