<svg xmlns="http://www.w3.org/2000/svg" viewBox="0 0 48 48" fill="none">
  <defs>
    <!-- Background Gradient -->
    <linearGradient id="bgGrad" x1="0%" y1="0%" x2="100%" y2="100%">
      <stop offset="0%" stop-color="#36D1DC" />
      <stop offset="100%" stop-color="#5B86E5" />
    </linearGradient>
    
    <!-- Glossy Top Highlight Gradient -->
    <linearGradient id="glossGrad" x1="0%" y1="0%" x2="0%" y2="100%">
      <stop offset="0%" stop-color="#ffffff" stop-opacity="0.6" />
      <stop offset="100%" stop-color="#ffffff" stop-opacity="0.0" />
    </linearGradient>

    <!-- Inner Bottom Shadow Gradient -->
    <linearGradient id="shadowGrad" x1="0%" y1="100%" x2="0%" y2="0%">
      <stop offset="0%" stop-color="#000000" stop-opacity="0.3" />
      <stop offset="100%" stop-color="#000000" stop-opacity="0.0" />
    </linearGradient>

    <!-- Drop Shadow for the Icon -->
    <filter id="iconShadow" x="-20%" y="-20%" width="140%" height="140%">
      <feDropShadow dx="0" dy="3" stdDeviation="2" flood-color="#000000" flood-opacity="0.4"/>
    </filter>
  </defs>

  <!-- Base Squircle -->
  <rect width="100%" height="100%" rx="12" fill="url(#bgGrad)" />
  
  <!-- Inner Bottom Shadow -->
  <rect width="100%" height="100%" rx="12" fill="url(#shadowGrad)" />

  <!-- Glossy Top Highlight -->
  <path d="M 0,12 C 0,5 5,0 12,0 L 36,0 C 43,0 48,5 48,12 C 48,24 36,28 24,28 C 12,28 0,24 0,12 Z" fill="url(#glossGrad)" />

  <!-- Icon Wrapper with Drop Shadow -->
  <g filter="url(#iconShadow)">
    <rect x="8" y="22" width="14" height="12" rx="2" fill="#ffffff"/><path d="M6 22l9-6 9 6" fill="#ffffff"/><rect x="12" y="28" width="6" height="6" rx="1" fill="#5B86E5"/><rect x="26" y="22" width="14" height="12" rx="2" fill="#ffffff"/><path d="M24 22l9-6 9 6" fill="#ffffff"/><rect x="30" y="28" width="6" height="6" rx="1" fill="#5B86E5"/><path d="M22 28h4" stroke="#ffffff" stroke-width="3" stroke-linecap="round"/><circle cx="24" cy="40" r="4" fill="#ffffff"/><text x="24" y="43" text-anchor="middle" font-size="8" font-weight="bold" fill="#5B86E5">F</text>
  </g>
</svg>